<svg width="342" height="50" viewBox="0 0 342 50" fill="none" xmlns="http://www.w3.org/2000/svg">
<g clip-path="url(#clip0_762_476)">
<path d="M43.4463 39.3643C43.4026 39.1814 43.3218 39.0095 43.2089 38.8593C43.096 38.7092 42.9534 38.5841 42.79 38.4918L37.8678 35.8082C37.5769 35.6492 37.2373 35.605 36.9156 35.6842C36.5939 35.7634 36.3132 35.9603 36.1286 36.2363C34.8854 38.0616 33.2261 39.563 31.2884 40.6156C29.2779 41.7204 27.0177 42.2874 24.7255 42.2619C22.5306 42.2785 20.3547 41.8531 18.3266 41.0107C16.366 40.2074 14.5944 39.0018 13.1255 37.471C11.6952 35.875 10.5815 34.0199 9.84404 32.0051C9.00575 29.7693 8.58849 27.3967 8.61349 25.0081C8.57886 22.6025 8.99633 20.212 9.84404 17.9616C10.5816 15.9617 11.6957 14.1228 13.1255 12.5451C14.5753 11.0219 16.3239 9.81669 18.261 9.00544C20.3032 8.15092 22.4965 7.71971 24.7091 7.73774C27.0025 7.7017 29.2653 8.26935 31.272 9.3841C33.2253 10.4392 34.9097 11.9322 36.1942 13.747C36.3784 14.019 36.6572 14.212 36.976 14.2882C37.2948 14.3644 37.6305 14.3181 37.917 14.1585L42.6587 11.5408C42.8216 11.452 42.9641 11.3299 43.0771 11.1824C43.1902 11.035 43.2712 10.8655 43.315 10.6847C43.3547 10.5012 43.3562 10.3115 43.3195 10.1274C43.2828 9.94324 43.2087 9.76869 43.1017 9.61459C42.133 8.25859 41.0339 7.00133 39.8203 5.86089C38.5644 4.67167 37.1707 3.63804 35.6692 2.78219C34.1044 1.89419 32.434 1.20826 30.6978 0.740701C28.7645 0.233312 26.773 -0.0157936 24.7747 -0.000162105C21.4622 -0.0230473 18.1761 0.591722 15.0944 1.81084C12.1387 2.9759 9.45057 4.73291 7.19387 6.97471C4.93718 9.2165 3.15924 11.8961 1.96851 14.85C0.64299 18.0702 -0.0264661 21.5241 -0.000370708 25.0081C-0.0407505 28.4886 0.611896 31.9421 1.91929 35.1661C3.13118 38.1309 4.92828 40.819 7.20246 43.0687C9.46034 45.2941 12.1453 47.0361 15.0944 48.1888C18.1761 49.408 21.4622 50.0227 24.7747 49.9998C28.6239 50.1199 32.4303 49.1622 35.7677 47.234C38.6761 45.4726 41.2078 43.1505 43.2166 40.4016C43.3255 40.2546 43.4022 40.0863 43.4418 39.9076C43.4814 39.7288 43.4829 39.5437 43.4463 39.3643Z" fill="#080808"/>
<path d="M71.5361 42.2786C69.3385 42.3072 67.1591 41.8754 65.1372 41.0109C63.2516 40.1955 61.5703 38.9695 60.215 37.4218C58.8359 35.8265 57.7823 33.975 57.114 31.9724C56.3752 29.7319 56.0094 27.3845 56.0311 25.0247C56.0255 22.6218 56.4192 20.2348 57.196 17.9618C57.8538 15.958 58.9024 14.1056 60.2806 12.5124C61.6513 10.9899 63.3292 9.77765 65.2028 8.95622C67.221 8.07801 69.4021 7.64028 71.6017 7.67206C73.7909 7.63684 75.9621 8.07481 77.9677 8.95622C79.8056 9.79048 81.4488 11.0019 82.7915 12.5124C84.1566 14.1094 85.1937 15.9613 85.8433 17.9618C86.6148 20.2291 86.9921 22.6126 86.959 25.0082C86.9794 27.3652 86.6022 29.7087 85.8433 31.9394C85.1506 33.943 84.0874 35.7974 82.7095 37.4053C81.3836 38.9396 79.744 40.1693 77.9021 41.0109C75.897 41.8938 73.7255 42.3318 71.5361 42.295M88.8786 7.17815C86.754 4.89703 84.1701 3.09555 81.2984 1.89333C75.039 -0.631354 68.0495 -0.631354 61.7901 1.89333C58.8983 3.09361 56.2925 4.89472 54.1443 7.17815C52.0034 9.4821 50.3314 12.1833 49.2221 15.1301C48.052 18.2898 47.4682 21.6376 47.4993 25.0082C47.4696 28.3787 48.0535 31.7263 49.2221 34.8864C50.3314 37.8283 52.0036 40.5241 54.1443 42.8219C56.2817 45.0996 58.869 46.9051 61.7409 48.1232C68.0003 50.6478 74.9898 50.6478 81.2492 48.1232C84.1162 46.9048 86.698 45.0992 88.8294 42.8219C90.9756 40.5283 92.6484 37.8314 93.7516 34.8864C94.9258 31.7274 95.5152 28.3797 95.4908 25.0082C95.5182 21.6365 94.9287 18.2883 93.7516 15.1301C92.6484 12.1802 90.9757 9.47792 88.8294 7.17815" fill="#080808"/>
<path d="M141.005 0.757324H135.328C134.975 0.757324 134.637 0.897823 134.388 1.14791C134.139 1.398 133.999 1.7372 133.999 2.09088V20.4478H109.929V2.09088C109.929 1.91575 109.895 1.74234 109.828 1.58055C109.761 1.41875 109.663 1.27174 109.54 1.14791C109.417 1.02408 109.27 0.925852 109.109 0.858835C108.948 0.791818 108.775 0.757324 108.6 0.757324H102.973C102.798 0.757324 102.625 0.791818 102.464 0.858835C102.303 0.925852 102.156 1.02408 102.033 1.14791C101.909 1.27174 101.812 1.41875 101.745 1.58055C101.678 1.74234 101.644 1.91575 101.644 2.09088V47.8597C101.644 48.0341 101.678 48.2067 101.745 48.3676C101.812 48.5285 101.91 48.6744 102.034 48.7969C102.157 48.9194 102.304 49.0161 102.465 49.0813C102.626 49.1465 102.799 49.179 102.973 49.1768H108.649C108.999 49.1768 109.335 49.0386 109.583 48.7921C109.832 48.5455 109.974 48.2105 109.978 47.8597V28.1857H133.999V47.942C133.999 48.1164 134.033 48.289 134.1 48.4499C134.167 48.6108 134.265 48.7567 134.389 48.8792C134.513 49.0018 134.659 49.0984 134.821 49.1636C134.982 49.2289 135.154 49.2613 135.328 49.2591H141.005C141.353 49.2591 141.687 49.1204 141.933 48.8734C142.179 48.6264 142.317 48.2914 142.317 47.942V2.09088C142.32 1.91653 142.287 1.74349 142.222 1.58179C142.157 1.42009 142.061 1.27295 141.939 1.14889C141.817 1.02484 141.671 0.92635 141.511 0.859133C141.351 0.791916 141.179 0.757311 141.005 0.757324Z" fill="#080808"/>
<path d="M183.352 8.49522C183.705 8.49522 184.043 8.35472 184.292 8.10463C184.541 7.85454 184.681 7.51535 184.681 7.16167V2.09088C184.681 1.7372 184.541 1.398 184.292 1.14791C184.043 0.897823 183.705 0.757324 183.352 0.757324H151.358C151.005 0.757324 150.667 0.897823 150.418 1.14791C150.169 1.398 150.029 1.7372 150.029 2.09088V47.8597C150.029 48.2134 150.169 48.5526 150.418 48.8027C150.667 49.0528 151.005 49.1933 151.358 49.1933H183.352C183.705 49.1933 184.043 49.0528 184.292 48.8027C184.541 48.5526 184.681 48.2134 184.681 47.8597V42.7725C184.681 42.5981 184.647 42.4255 184.58 42.2646C184.513 42.1037 184.415 41.9578 184.291 41.8353C184.167 41.7128 184.021 41.6161 183.859 41.5509C183.698 41.4857 183.526 41.4532 183.352 41.4554H158.347V28.2845H181.826C182.174 28.2845 182.508 28.1457 182.754 27.8987C183.001 27.6517 183.139 27.3167 183.139 26.9674V21.9131C183.139 21.5638 183.001 21.2287 182.754 20.9817C182.508 20.7347 182.174 20.596 181.826 20.596H158.347V8.49522H183.352Z" fill="#080808"/>
<path d="M246.127 0.757324H240.466C239.732 0.757324 239.137 1.35438 239.137 2.09088V47.8597C239.137 48.5962 239.732 49.1933 240.466 49.1933H246.127C246.861 49.1933 247.456 48.5962 247.456 47.8597V2.09088C247.456 1.35438 246.861 0.757324 246.127 0.757324Z" fill="#080808"/>
<path d="M291.903 0.757324H255.266C254.913 0.757324 254.575 0.897823 254.326 1.14791C254.077 1.398 253.937 1.7372 253.937 2.09088V7.16167C253.937 7.51535 254.077 7.85454 254.326 8.10463C254.575 8.35472 254.913 8.49522 255.266 8.49522H269.425V47.8597C269.425 48.2106 269.563 48.5473 269.809 48.7969C270.054 49.0465 270.388 49.1889 270.738 49.1933H276.431C276.781 49.1889 277.115 49.0465 277.36 48.7969C277.606 48.5473 277.744 48.2106 277.744 47.8597V8.49522H291.903C292.256 8.49522 292.594 8.35472 292.843 8.10463C293.092 7.85454 293.232 7.51535 293.232 7.16167V2.09088C293.232 1.91575 293.198 1.74234 293.131 1.58055C293.064 1.41875 292.966 1.27174 292.843 1.14791C292.72 1.02408 292.573 0.925852 292.412 0.858835C292.251 0.791818 292.078 0.757324 291.903 0.757324Z" fill="#080808"/>
<path d="M341.503 1.49818C341.393 1.28335 341.226 1.10335 341.02 0.97832C340.815 0.853295 340.578 0.788175 340.338 0.790245H333.775C333.557 0.788235 333.341 0.841499 333.149 0.945104C332.957 1.04871 332.794 1.1993 332.675 1.38294L319.55 20.9911L306.489 1.35001C306.371 1.16638 306.208 1.01578 306.015 0.912177C305.823 0.808572 305.608 0.755307 305.39 0.757318H298.827C298.587 0.755247 298.35 0.820368 298.144 0.945393C297.939 1.07042 297.772 1.25042 297.662 1.46525C297.538 1.67124 297.472 1.90756 297.472 2.14849C297.472 2.38943 297.538 2.62575 297.662 2.83173L315.349 28.9101V47.8597C315.343 48.0376 315.372 48.215 315.434 48.3814C315.497 48.5479 315.593 48.7 315.715 48.8289C315.837 48.9578 315.984 49.0608 316.147 49.1318C316.309 49.2029 316.484 49.2406 316.662 49.2427H322.404C322.754 49.2383 323.088 49.0959 323.334 48.8463C323.579 48.5967 323.717 48.26 323.717 47.9091V28.9101L341.437 2.83173C341.562 2.63424 341.634 2.40746 341.646 2.17367C341.657 1.93988 341.608 1.7071 341.503 1.49818Z" fill="#080808"/>
<path d="M227.275 0.757323H208.259C205.824 0.712038 203.406 1.17648 201.16 2.12103C198.914 3.06557 196.889 4.46948 195.214 6.24319C193.539 8.01689 192.251 10.1215 191.432 12.4226C190.613 14.7238 190.281 17.171 190.457 19.6082C190.814 23.9567 192.787 28.0116 195.984 30.9694C199.181 33.9272 203.369 35.572 207.717 35.5779H214.28C215.132 35.5945 215.963 35.3151 216.633 34.787C217.303 34.2589 217.77 33.5146 217.955 32.6803C218.062 32.1556 218.052 31.6136 217.924 31.0935C217.797 30.5735 217.555 30.0885 217.217 29.6739C216.879 29.2592 216.454 28.9253 215.971 28.6963C215.489 28.4674 214.961 28.3492 214.428 28.3503H208.094C205.478 28.3859 202.944 27.4288 201 25.6706C199.056 23.9124 197.846 21.4826 197.61 18.8673C197.523 17.4831 197.719 16.0956 198.186 14.7903C198.654 13.485 199.382 12.2896 200.328 11.2777C201.273 10.2658 202.415 9.45896 203.683 8.9068C204.951 8.35464 206.318 8.06889 207.701 8.06717H225.749C226.053 8.0651 226.348 7.96463 226.59 7.78071C226.833 7.59679 227.009 7.33926 227.094 7.04642L228.44 2.45308C228.52 2.26401 228.551 2.0576 228.531 1.85305C228.511 1.64851 228.439 1.45248 228.323 1.28322C228.206 1.11396 228.049 0.97698 227.866 0.885028C227.683 0.793076 227.479 0.749144 227.275 0.757323Z" fill="#009E60"/>
<path d="M214.625 14.4551H208.062C207.221 14.4405 206.402 14.7152 205.739 15.2335C205.076 15.7517 204.61 16.4822 204.419 17.3033C204.31 17.8307 204.319 18.376 204.445 18.8997C204.571 19.4233 204.812 19.9123 205.149 20.3314C205.487 20.7504 205.913 21.0889 206.397 21.3226C206.88 21.5563 207.41 21.6792 207.947 21.6826H214.329C216.939 21.6393 219.469 22.5902 221.408 24.3437C223.348 26.0973 224.553 28.5232 224.781 31.1327C224.875 32.5187 224.685 33.9095 224.221 35.2186C223.758 36.5278 223.031 37.7274 222.087 38.7432C221.142 39.7589 220 40.5691 218.73 41.1234C217.461 41.6778 216.091 41.9645 214.707 41.9658H196.38C196.129 41.9688 195.886 42.0518 195.685 42.2027C195.484 42.3537 195.337 42.5648 195.264 42.8054L193.836 47.7445C193.786 47.9217 193.777 48.1082 193.81 48.2895C193.843 48.4708 193.917 48.642 194.026 48.79C194.136 48.938 194.278 49.0588 194.441 49.143C194.604 49.2272 194.785 49.2726 194.969 49.2756H214.165C218.858 49.2931 223.365 47.4405 226.697 44.125C230.029 40.8095 231.913 36.3022 231.934 31.5937C231.865 27.0299 230.012 22.6759 226.775 19.47C223.537 16.2642 219.173 14.4632 214.625 14.4551Z" fill="#009E60"/>
</g>
<defs>
<clipPath id="clip0_762_476">
<rect width="341.667" height="50" fill="white"/>
</clipPath>
</defs>
</svg>
